<svg xmlns="http://www.w3.org/2000/svg" xmlns:xlink="http://www.w3.org/1999/xlink" width="500" zoomAndPan="magnify" viewBox="0 0 375 374.999991" height="500" preserveAspectRatio="xMidYMid meet" version="1.0"><defs><g/></defs><g fill="#66fcf1" fill-opacity="1"><g transform="translate(8.858144, 200.682775)"><g><path d="M 23.046875 -45.484375 C 22.972656 -46.046875 22.722656 -46.585938 22.296875 -47.109375 C 21.992188 -47.472656 21.609375 -47.8125 21.140625 -48.125 L 20.5 -48.546875 L 19.84375 -48.953125 C 19.3125 -49.265625 18.851562 -49.15625 18.46875 -48.625 C 18.101562 -48.125 17.8125 -47.5625 17.59375 -46.9375 C 17.3125 -46.050781 16.894531 -44.984375 16.34375 -43.734375 L 15.53125 -41.890625 L 14.734375 -40.046875 C 14.347656 -39.191406 13.921875 -38.125 13.453125 -36.84375 L 12.3125 -33.65625 L 11.484375 -31.328125 L 10.703125 -29 L 10.1875 -27.828125 C 10.15625 -27.734375 10.085938 -27.6875 9.984375 -27.6875 C 9.878906 -27.6875 9.804688 -27.734375 9.765625 -27.828125 L 9.09375 -29.03125 C 7.976562 -31 7.109375 -32.628906 6.484375 -33.921875 L 5.171875 -36.625 L 3.84375 -39.296875 L 2.59375 -42.015625 C 2.144531 -43.046875 1.78125 -43.96875 1.5 -44.78125 C 1.25 -45.46875 0.78125 -46.425781 0.09375 -47.65625 C -0.269531 -48.320312 -0.882812 -48.6875 -1.75 -48.75 C -2.25 -48.78125 -2.445312 -48.566406 -2.34375 -48.109375 C -2.28125 -47.753906 -2.148438 -47.300781 -1.953125 -46.75 L -0.96875 -44.109375 C -0.59375 -43.046875 -0.285156 -42.15625 -0.046875 -41.4375 C 0.484375 -39.675781 1.222656 -37.679688 2.171875 -35.453125 C 3.765625 -31.703125 5.445312 -28.488281 7.21875 -25.8125 L 7.609375 -25.109375 L 8.015625 -24.421875 C 8.359375 -23.847656 8.429688 -23.265625 8.234375 -22.671875 C 8.148438 -22.429688 8.082031 -22.15625 8.03125 -21.84375 C 7.832031 -20.457031 7.503906 -18.875 7.046875 -17.09375 L 6.421875 -14.75 L 5.765625 -12.40625 C 4.597656 -8.125 3.800781 -4.878906 3.375 -2.671875 L 3 -0.828125 L 2.625 1.03125 C 2.351562 2.457031 2.1875 3.710938 2.125 4.796875 L 2.09375 5 C 1.945312 5.863281 2.085938 6.660156 2.515625 7.390625 C 2.722656 7.753906 3.007812 8.007812 3.375 8.15625 C 4.070312 8.445312 4.894531 8.675781 5.84375 8.84375 C 6.226562 8.90625 6.578125 8.894531 6.890625 8.8125 C 8.253906 8.445312 9.1875 7.738281 9.6875 6.6875 L 9.890625 6.3125 L 10.109375 5.96875 C 11.085938 4.28125 11.738281 2.738281 12.0625 1.34375 C 12.351562 0.03125 12.625 -1 12.875 -1.75 L 13.28125 -2.953125 L 13.6875 -4.171875 C 13.976562 -5.066406 14.289062 -6.195312 14.625 -7.5625 L 15.03125 -9.28125 L 15.453125 -10.984375 C 15.929688 -12.929688 16.429688 -14.671875 16.953125 -16.203125 L 17.703125 -18.5 L 18.390625 -20.796875 L 19.078125 -23.421875 L 19.703125 -26.0625 L 20.171875 -28.15625 L 20.640625 -30.234375 L 21.046875 -31.734375 L 21.390625 -33.21875 C 21.628906 -34.375 21.914062 -35.410156 22.25 -36.328125 C 22.488281 -37.054688 22.632812 -37.671875 22.6875 -38.171875 L 23.109375 -42.53125 L 23.296875 -44.0625 L 23.171875 -44.8125 Z M 23.046875 -45.484375 "/></g></g></g><g fill="#66fcf1" fill-opacity="1"><g transform="translate(36.640109, 200.682775)"><g><path d="M 18.828125 -13.53125 C 18.617188 -10.71875 17.203125 -8.785156 14.578125 -7.734375 C 13.992188 -7.503906 13.492188 -7.515625 13.078125 -7.765625 C 12.765625 -7.960938 12.5 -8.3125 12.28125 -8.8125 C 11.144531 -11.40625 10.796875 -13.914062 11.234375 -16.34375 C 11.316406 -16.882812 11.375 -17.5625 11.40625 -18.375 L 11.4375 -19.390625 L 11.484375 -20.390625 C 11.535156 -21.273438 11.734375 -22.382812 12.078125 -23.71875 L 12.53125 -25.3125 L 12.90625 -26.9375 C 13.15625 -28.28125 13.90625 -29.34375 15.15625 -30.125 C 16.050781 -30.695312 17.253906 -31.140625 18.765625 -31.453125 C 19.671875 -31.640625 20.148438 -31.125 20.203125 -29.90625 C 20.117188 -27.875 19.914062 -25.175781 19.59375 -21.8125 L 19.203125 -17.703125 Z M 30.109375 -18.390625 C 30.140625 -20.046875 29.890625 -21.90625 29.359375 -23.96875 L 28.5625 -26.640625 L 27.703125 -29.28125 C 27.359375 -30.363281 27.023438 -31.1875 26.703125 -31.75 C 26.191406 -32.644531 25.53125 -33.335938 24.71875 -33.828125 C 23.632812 -34.460938 22.675781 -34.710938 21.84375 -34.578125 C 20.976562 -34.441406 20.476562 -33.910156 20.34375 -32.984375 C 20.257812 -32.296875 19.882812 -32.09375 19.21875 -32.375 C 17.289062 -33.175781 14.976562 -32.976562 12.28125 -31.78125 C 7.882812 -29.832031 4.863281 -26.113281 3.21875 -20.625 C 1.070312 -13.53125 1.960938 -8.019531 5.890625 -4.09375 C 7.953125 -2.03125 9.660156 -0.820312 11.015625 -0.46875 C 13.023438 0.0390625 15.3125 -0.75 17.875 -2.84375 L 18.078125 -3 C 18.140625 -3.050781 18.1875 -3.066406 18.21875 -3.046875 C 18.375 -2.992188 18.457031 -2.894531 18.46875 -2.75 L 18.46875 -2.546875 L 18.453125 -2.375 L 18.09375 4.046875 C 18.050781 4.773438 18.285156 5.390625 18.796875 5.890625 C 19.316406 6.390625 19.929688 6.613281 20.640625 6.5625 L 21.375 6.46875 L 22.125 6.359375 C 22.695312 6.296875 23.191406 6.304688 23.609375 6.390625 C 24.679688 6.609375 25.78125 6.375 26.90625 5.6875 C 28.019531 4.988281 28.71875 4.125 29 3.09375 L 29.40625 1.515625 C 29.519531 0.941406 29.59375 0.421875 29.625 -0.046875 C 30.03125 -6.328125 30.191406 -12.441406 30.109375 -18.390625 Z M 30.109375 -18.390625 "/></g></g></g><g fill="#66fcf1" fill-opacity="1"><g transform="translate(71.860547, 200.682775)"><g><path d="M 7.609375 -25.46875 C 7.578125 -24.28125 7.6875 -23.476562 7.9375 -23.0625 C 8.1875 -22.664062 8.8125 -22.285156 9.8125 -21.921875 L 11.734375 -21.1875 C 12.460938 -20.925781 13.085938 -20.671875 13.609375 -20.421875 C 14.984375 -19.753906 16.082031 -18.960938 16.90625 -18.046875 C 18.351562 -16.429688 19.300781 -14.703125 19.75 -12.859375 C 20.257812 -10.710938 19.984375 -8.738281 18.921875 -6.9375 L 18.046875 -5.46875 C 17.710938 -4.90625 17.394531 -4.429688 17.09375 -4.046875 C 16.300781 -2.992188 15.394531 -2.253906 14.375 -1.828125 C 13.75 -1.535156 13.25 -1.410156 12.875 -1.453125 C 8.40625 -1.867188 5.285156 -3.265625 3.515625 -5.640625 L 2.578125 -6.84375 L 1.625 -8.03125 C 0.925781 -8.988281 0.457031 -9.898438 0.21875 -10.765625 L 0.125 -11.015625 L 0.046875 -11.3125 C 0.015625 -11.53125 0.0703125 -11.671875 0.21875 -11.734375 C 0.351562 -11.796875 0.488281 -11.738281 0.625 -11.5625 L 0.75 -11.328125 L 0.875 -11.078125 C 1.257812 -10.367188 1.882812 -9.738281 2.75 -9.1875 L 3.921875 -8.515625 L 5.09375 -7.859375 C 5.625 -7.515625 6.125 -7.523438 6.59375 -7.890625 L 7.78125 -8.8125 C 8.238281 -9.175781 8.613281 -9.515625 8.90625 -9.828125 C 9.6875 -10.648438 10.203125 -11.535156 10.453125 -12.484375 C 10.835938 -13.929688 10.359375 -15.046875 9.015625 -15.828125 L 8.140625 -16.328125 L 7.265625 -16.796875 C 6.597656 -17.179688 6.054688 -17.539062 5.640625 -17.875 C 2.347656 -20.582031 0.664062 -23.382812 0.59375 -26.28125 C 0.582031 -27.445312 0.957031 -28.585938 1.71875 -29.703125 C 2.539062 -30.898438 3.515625 -31.59375 4.640625 -31.78125 L 5.5625 -32 L 6.515625 -32.296875 C 7.273438 -32.535156 7.925781 -32.628906 8.46875 -32.578125 C 10.476562 -32.390625 12.066406 -31.65625 13.234375 -30.375 C 14.429688 -29.0625 15.003906 -27.359375 14.953125 -25.265625 C 14.953125 -25.046875 14.925781 -24.878906 14.875 -24.765625 C 14.8125 -24.597656 14.6875 -24.5 14.5 -24.46875 C 14.332031 -24.4375 14.191406 -24.484375 14.078125 -24.609375 L 13.921875 -24.78125 L 13.828125 -24.984375 L 12.984375 -26.6875 C 12.648438 -27.382812 12.359375 -27.929688 12.109375 -28.328125 C 11.421875 -29.492188 10.804688 -30.078125 10.265625 -30.078125 C 9.710938 -30.066406 9.113281 -29.476562 8.46875 -28.3125 L 8.09375 -27.609375 L 7.765625 -26.90625 C 7.546875 -26.375 7.492188 -25.894531 7.609375 -25.46875 Z M 7.609375 -25.46875 "/></g></g></g><g fill="#66fcf1" fill-opacity="1"><g transform="translate(98.020008, 200.682775)"><g><path d="M 18.828125 -13.53125 C 18.617188 -10.71875 17.203125 -8.785156 14.578125 -7.734375 C 13.992188 -7.503906 13.492188 -7.515625 13.078125 -7.765625 C 12.765625 -7.960938 12.5 -8.3125 12.28125 -8.8125 C 11.144531 -11.40625 10.796875 -13.914062 11.234375 -16.34375 C 11.316406 -16.882812 11.375 -17.5625 11.40625 -18.375 L 11.4375 -19.390625 L 11.484375 -20.390625 C 11.535156 -21.273438 11.734375 -22.382812 12.078125 -23.71875 L 12.53125 -25.3125 L 12.90625 -26.9375 C 13.15625 -28.28125 13.90625 -29.34375 15.15625 -30.125 C 16.050781 -30.695312 17.253906 -31.140625 18.765625 -31.453125 C 19.671875 -31.640625 20.148438 -31.125 20.203125 -29.90625 C 20.117188 -27.875 19.914062 -25.175781 19.59375 -21.8125 L 19.203125 -17.703125 Z M 30.109375 -18.390625 C 30.140625 -20.046875 29.890625 -21.90625 29.359375 -23.96875 L 28.5625 -26.640625 L 27.703125 -29.28125 C 27.359375 -30.363281 27.023438 -31.1875 26.703125 -31.75 C 26.191406 -32.644531 25.53125 -33.335938 24.71875 -33.828125 C 23.632812 -34.460938 22.675781 -34.710938 21.84375 -34.578125 C 20.976562 -34.441406 20.476562 -33.910156 20.34375 -32.984375 C 20.257812 -32.296875 19.882812 -32.09375 19.21875 -32.375 C 17.289062 -33.175781 14.976562 -32.976562 12.28125 -31.78125 C 7.882812 -29.832031 4.863281 -26.113281 3.21875 -20.625 C 1.070312 -13.53125 1.960938 -8.019531 5.890625 -4.09375 C 7.953125 -2.03125 9.660156 -0.820312 11.015625 -0.46875 C 13.023438 0.0390625 15.3125 -0.75 17.875 -2.84375 L 18.078125 -3 C 18.140625 -3.050781 18.1875 -3.066406 18.21875 -3.046875 C 18.375 -2.992188 18.457031 -2.894531 18.46875 -2.75 L 18.46875 -2.546875 L 18.453125 -2.375 L 18.09375 4.046875 C 18.050781 4.773438 18.285156 5.390625 18.796875 5.890625 C 19.316406 6.390625 19.929688 6.613281 20.640625 6.5625 L 21.375 6.46875 L 22.125 6.359375 C 22.695312 6.296875 23.191406 6.304688 23.609375 6.390625 C 24.679688 6.609375 25.78125 6.375 26.90625 5.6875 C 28.019531 4.988281 28.71875 4.125 29 3.09375 L 29.40625 1.515625 C 29.519531 0.941406 29.59375 0.421875 29.625 -0.046875 C 30.03125 -6.328125 30.191406 -12.441406 30.109375 -18.390625 Z M 30.109375 -18.390625 "/></g></g></g><g fill="#66fcf1" fill-opacity="1"><g transform="translate(133.240446, 200.682775)"><g><path d="M 7.609375 -25.46875 C 7.578125 -24.28125 7.6875 -23.476562 7.9375 -23.0625 C 8.1875 -22.664062 8.8125 -22.285156 9.8125 -21.921875 L 11.734375 -21.1875 C 12.460938 -20.925781 13.085938 -20.671875 13.609375 -20.421875 C 14.984375 -19.753906 16.082031 -18.960938 16.90625 -18.046875 C 18.351562 -16.429688 19.300781 -14.703125 19.75 -12.859375 C 20.257812 -10.710938 19.984375 -8.738281 18.921875 -6.9375 L 18.046875 -5.46875 C 17.710938 -4.90625 17.394531 -4.429688 17.09375 -4.046875 C 16.300781 -2.992188 15.394531 -2.253906 14.375 -1.828125 C 13.75 -1.535156 13.25 -1.410156 12.875 -1.453125 C 8.40625 -1.867188 5.285156 -3.265625 3.515625 -5.640625 L 2.578125 -6.84375 L 1.625 -8.03125 C 0.925781 -8.988281 0.457031 -9.898438 0.21875 -10.765625 L 0.125 -11.015625 L 0.046875 -11.3125 C 0.015625 -11.53125 0.0703125 -11.671875 0.21875 -11.734375 C 0.351562 -11.796875 0.488281 -11.738281 0.625 -11.5625 L 0.75 -11.328125 L 0.875 -11.078125 C 1.257812 -10.367188 1.882812 -9.738281 2.75 -9.1875 L 3.921875 -8.515625 L 5.09375 -7.859375 C 5.625 -7.515625 6.125 -7.523438 6.59375 -7.890625 L 7.78125 -8.8125 C 8.238281 -9.175781 8.613281 -9.515625 8.90625 -9.828125 C 9.6875 -10.648438 10.203125 -11.535156 10.453125 -12.484375 C 10.835938 -13.929688 10.359375 -15.046875 9.015625 -15.828125 L 8.140625 -16.328125 L 7.265625 -16.796875 C 6.597656 -17.179688 6.054688 -17.539062 5.640625 -17.875 C 2.347656 -20.582031 0.664062 -23.382812 0.59375 -26.28125 C 0.582031 -27.445312 0.957031 -28.585938 1.71875 -29.703125 C 2.539062 -30.898438 3.515625 -31.59375 4.640625 -31.78125 L 5.5625 -32 L 6.515625 -32.296875 C 7.273438 -32.535156 7.925781 -32.628906 8.46875 -32.578125 C 10.476562 -32.390625 12.066406 -31.65625 13.234375 -30.375 C 14.429688 -29.0625 15.003906 -27.359375 14.953125 -25.265625 C 14.953125 -25.046875 14.925781 -24.878906 14.875 -24.765625 C 14.8125 -24.597656 14.6875 -24.5 14.5 -24.46875 C 14.332031 -24.4375 14.191406 -24.484375 14.078125 -24.609375 L 13.921875 -24.78125 L 13.828125 -24.984375 L 12.984375 -26.6875 C 12.648438 -27.382812 12.359375 -27.929688 12.109375 -28.328125 C 11.421875 -29.492188 10.804688 -30.078125 10.265625 -30.078125 C 9.710938 -30.066406 9.113281 -29.476562 8.46875 -28.3125 L 8.09375 -27.609375 L 7.765625 -26.90625 C 7.546875 -26.375 7.492188 -25.894531 7.609375 -25.46875 Z M 7.609375 -25.46875 "/></g></g></g><g fill="#66fcf1" fill-opacity="1"><g transform="translate(159.399908, 200.682775)"><g/></g></g><g fill="#66fcf1" fill-opacity="1"><g transform="translate(174.376698, 200.682775)"><g><path d="M 9.59375 -25.71875 L 10.28125 -26.359375 C 10.832031 -26.878906 11.300781 -27.28125 11.6875 -27.5625 L 11.859375 -27.703125 L 12 -27.890625 C 12.289062 -28.203125 12.414062 -28.484375 12.375 -28.734375 C 12.34375 -28.898438 12.410156 -29.070312 12.578125 -29.25 C 12.898438 -29.570312 13.082031 -29.929688 13.125 -30.328125 C 13.125 -30.460938 13.1875 -30.613281 13.3125 -30.78125 C 13.644531 -31.332031 13.925781 -31.988281 14.15625 -32.75 L 14.40625 -33.796875 L 14.625 -34.84375 C 14.78125 -35.5 14.75 -36.09375 14.53125 -36.625 L 14.125 -37.671875 L 13.6875 -38.671875 C 13.164062 -39.679688 12.429688 -40.335938 11.484375 -40.640625 C 11.128906 -40.753906 10.820312 -40.742188 10.5625 -40.609375 C 10.289062 -40.492188 10 -40.328125 9.6875 -40.109375 L 8.890625 -39.515625 C 8.703125 -39.367188 8.644531 -39.195312 8.71875 -39 C 8.84375 -38.582031 8.925781 -38.082031 8.96875 -37.5 L 8.984375 -36.75 L 8.984375 -34.34375 L 8.96875 -32.734375 C 8.945312 -31.078125 8.878906 -29.394531 8.765625 -27.6875 C 8.691406 -26.789062 8.71875 -25.90625 8.84375 -25.03125 Z M 17.703125 -14.5 L 17.65625 -15.203125 L 17.546875 -15.875 L 17.453125 -16.578125 C 17.367188 -17.085938 17.226562 -17.519531 17.03125 -17.875 C 16.726562 -18.457031 16.382812 -19.179688 16 -20.046875 C 15.40625 -21.390625 14.570312 -22.40625 13.5 -23.09375 C 12.71875 -23.59375 11.960938 -23.734375 11.234375 -23.515625 L 10.53125 -23.21875 L 9.859375 -22.859375 C 9.265625 -22.566406 9 -22.078125 9.0625 -21.390625 C 9.164062 -20.429688 9.234375 -19.441406 9.265625 -18.421875 C 9.296875 -17.328125 9.296875 -16.28125 9.265625 -15.28125 L 9.15625 -13.625 L 9.0625 -11.953125 L 9.03125 -10.65625 L 8.9375 -9.390625 L 8.8125 -8.640625 L 8.640625 -7.890625 L 8.0625 -4.3125 C 7.925781 -3.4375 7.691406 -2.414062 7.359375 -1.25 C 7.265625 -0.882812 7.414062 -0.734375 7.8125 -0.796875 C 7.976562 -0.828125 8.195312 -0.910156 8.46875 -1.046875 L 8.78125 -1.203125 L 9.109375 -1.328125 C 9.828125 -1.535156 10.535156 -2.007812 11.234375 -2.75 L 12.734375 -4.140625 L 14.234375 -5.546875 L 14.796875 -6.0625 C 15.003906 -6.28125 15.15625 -6.484375 15.25 -6.671875 C 15.488281 -7.128906 15.90625 -7.769531 16.5 -8.59375 C 16.695312 -8.851562 16.863281 -9.125 17 -9.40625 C 17.664062 -10.875 17.898438 -12.378906 17.703125 -13.921875 Z M 0.171875 -9.484375 L 0.171875 -12.0625 L 0.21875 -14.046875 L 0.21875 -16.75 L 0.34375 -20.375 L 0.5 -22.796875 L 0.671875 -25.234375 L 0.90625 -28.953125 L 0.921875 -29.625 L 0.921875 -36.21875 C 0.921875 -37.164062 0.972656 -38.023438 1.078125 -38.796875 C 1.171875 -39.628906 1.609375 -40.101562 2.390625 -40.21875 L 4.140625 -40.46875 C 4.804688 -40.53125 5.398438 -40.554688 5.921875 -40.546875 L 6.171875 -40.546875 L 6.390625 -40.515625 C 6.835938 -40.328125 7.296875 -40.453125 7.765625 -40.890625 C 8.546875 -41.609375 9.703125 -42.109375 11.234375 -42.390625 C 11.710938 -42.484375 12.269531 -42.414062 12.90625 -42.1875 C 13.601562 -41.914062 14.1875 -41.59375 14.65625 -41.21875 C 15.1875 -40.78125 15.578125 -40.242188 15.828125 -39.609375 L 16.125 -38.765625 L 16.421875 -37.890625 C 16.671875 -37.222656 16.914062 -36.675781 17.15625 -36.25 C 17.4375 -35.75 17.523438 -35.179688 17.421875 -34.546875 L 17.328125 -33.703125 C 17.222656 -32.035156 16.773438 -30.703125 15.984375 -29.703125 L 15.78125 -29.375 C 15.75 -29.3125 15.738281 -29.25 15.75 -29.1875 C 15.78125 -29.082031 15.859375 -29.046875 15.984375 -29.078125 C 16.460938 -29.242188 17.0625 -29.238281 17.78125 -29.0625 C 18.539062 -28.894531 19.1875 -28.71875 19.71875 -28.53125 C 20.164062 -28.382812 20.613281 -28.046875 21.0625 -27.515625 C 21.332031 -27.191406 21.601562 -26.832031 21.875 -26.4375 C 22.445312 -25.582031 22.953125 -24.972656 23.390625 -24.609375 C 23.523438 -24.492188 23.660156 -24.320312 23.796875 -24.09375 C 24.367188 -23.101562 24.820312 -22.050781 25.15625 -20.9375 L 25.640625 -19.46875 C 25.804688 -18.90625 25.90625 -18.40625 25.9375 -17.96875 L 26.03125 -17.625 C 26.25 -17.09375 26.453125 -16.4375 26.640625 -15.65625 L 26.890625 -14.65625 L 27.109375 -13.65625 C 27.222656 -13.175781 27.25 -12.703125 27.1875 -12.234375 C 26.988281 -11.035156 26.738281 -10.078125 26.4375 -9.359375 C 26.320312 -9.054688 26.25 -8.78125 26.21875 -8.53125 C 26.164062 -8.050781 26.054688 -7.53125 25.890625 -6.96875 L 25.359375 -5.421875 L 25.28125 -5.296875 C 25.25 -5.265625 25.207031 -5.25 25.15625 -5.25 L 25.0625 -5.3125 L 24.96875 -5.4375 L 24.90625 -5.5625 L 24.859375 -5.6875 C 24.765625 -5.84375 24.664062 -5.851562 24.5625 -5.71875 L 24.21875 -5.296875 L 23.9375 -4.875 C 23.769531 -4.570312 23.53125 -4.226562 23.21875 -3.84375 L 22.8125 -3.375 L 22.4375 -2.890625 C 22.175781 -2.578125 21.910156 -2.429688 21.640625 -2.453125 C 21.171875 -2.492188 20.664062 -2.265625 20.125 -1.765625 C 19.300781 -1.035156 18.300781 -0.414062 17.125 0.09375 C 15.039062 1.03125 13.171875 1.488281 11.515625 1.46875 L 10.140625 1.453125 C 9.609375 1.429688 9.140625 1.378906 8.734375 1.296875 C 8.429688 1.242188 8.09375 1.21875 7.71875 1.21875 L 6.640625 1.265625 C 6.390625 1.285156 6.109375 1.410156 5.796875 1.640625 C 5.179688 2.078125 4.476562 2.367188 3.6875 2.515625 C 3.28125 2.597656 3.035156 2.429688 2.953125 2.015625 C 2.878906 1.585938 2.71875 1.296875 2.46875 1.140625 L 2.390625 1.078125 L 2.375 0.96875 C 2.382812 0.539062 2.140625 0.285156 1.640625 0.203125 C 1.546875 0.179688 1.441406 0.113281 1.328125 0 L 1.078125 -0.296875 C 0.796875 -0.703125 0.59375 -1.128906 0.46875 -1.578125 C 0.207031 -2.585938 0.0507812 -3.660156 0 -4.796875 Z M 0.171875 -9.484375 "/></g></g></g><g fill="#66fcf1" fill-opacity="1"><g transform="translate(207.150927, 200.682775)"><g><path d="M 18.828125 -13.53125 C 18.617188 -10.71875 17.203125 -8.785156 14.578125 -7.734375 C 13.992188 -7.503906 13.492188 -7.515625 13.078125 -7.765625 C 12.765625 -7.960938 12.5 -8.3125 12.28125 -8.8125 C 11.144531 -11.40625 10.796875 -13.914062 11.234375 -16.34375 C 11.316406 -16.882812 11.375 -17.5625 11.40625 -18.375 L 11.4375 -19.390625 L 11.484375 -20.390625 C 11.535156 -21.273438 11.734375 -22.382812 12.078125 -23.71875 L 12.53125 -25.3125 L 12.90625 -26.9375 C 13.15625 -28.28125 13.90625 -29.34375 15.15625 -30.125 C 16.050781 -30.695312 17.253906 -31.140625 18.765625 -31.453125 C 19.671875 -31.640625 20.148438 -31.125 20.203125 -29.90625 C 20.117188 -27.875 19.914062 -25.175781 19.59375 -21.8125 L 19.203125 -17.703125 Z M 30.109375 -18.390625 C 30.140625 -20.046875 29.890625 -21.90625 29.359375 -23.96875 L 28.5625 -26.640625 L 27.703125 -29.28125 C 27.359375 -30.363281 27.023438 -31.1875 26.703125 -31.75 C 26.191406 -32.644531 25.53125 -33.335938 24.71875 -33.828125 C 23.632812 -34.460938 22.675781 -34.710938 21.84375 -34.578125 C 20.976562 -34.441406 20.476562 -33.910156 20.34375 -32.984375 C 20.257812 -32.296875 19.882812 -32.09375 19.21875 -32.375 C 17.289062 -33.175781 14.976562 -32.976562 12.28125 -31.78125 C 7.882812 -29.832031 4.863281 -26.113281 3.21875 -20.625 C 1.070312 -13.53125 1.960938 -8.019531 5.890625 -4.09375 C 7.953125 -2.03125 9.660156 -0.820312 11.015625 -0.46875 C 13.023438 0.0390625 15.3125 -0.75 17.875 -2.84375 L 18.078125 -3 C 18.140625 -3.050781 18.1875 -3.066406 18.21875 -3.046875 C 18.375 -2.992188 18.457031 -2.894531 18.46875 -2.75 L 18.46875 -2.546875 L 18.453125 -2.375 L 18.09375 4.046875 C 18.050781 4.773438 18.285156 5.390625 18.796875 5.890625 C 19.316406 6.390625 19.929688 6.613281 20.640625 6.5625 L 21.375 6.46875 L 22.125 6.359375 C 22.695312 6.296875 23.191406 6.304688 23.609375 6.390625 C 24.679688 6.609375 25.78125 6.375 26.90625 5.6875 C 28.019531 4.988281 28.71875 4.125 29 3.09375 L 29.40625 1.515625 C 29.519531 0.941406 29.59375 0.421875 29.625 -0.046875 C 30.03125 -6.328125 30.191406 -12.441406 30.109375 -18.390625 Z M 30.109375 -18.390625 "/></g></g></g><g fill="#66fcf1" fill-opacity="1"><g transform="translate(242.371365, 200.682775)"><g><path d="M 26.890625 -11.8125 C 26.765625 -10.332031 26.710938 -8.984375 26.734375 -7.765625 C 26.753906 -6.085938 26.878906 -4.546875 27.109375 -3.140625 C 27.410156 -1.328125 26.578125 0.492188 24.609375 2.328125 C 23.984375 2.921875 23.253906 3.117188 22.421875 2.921875 C 22.085938 2.835938 21.867188 2.628906 21.765625 2.296875 L 21.671875 1.84375 L 21.625 1.390625 C 21.414062 0.316406 21.347656 -0.960938 21.421875 -2.453125 L 21.5625 -4.375 L 21.6875 -6.296875 C 21.8125 -8.003906 21.78125 -10.28125 21.59375 -13.125 L 21.390625 -16.546875 L 21.296875 -20 L 21.3125 -22.734375 L 21.3125 -25.484375 C 21.300781 -27.597656 21.1875 -29.429688 20.96875 -30.984375 L 20.796875 -31.859375 C 20.378906 -33.835938 19.070312 -34.46875 16.875 -33.75 L 16.703125 -33.65625 L 16.5 -33.546875 C 16.351562 -33.484375 16.210938 -33.492188 16.078125 -33.578125 L 16.40625 -33.84375 L 16.75 -34.078125 L 17.34375 -34.28125 L 17.953125 -34.421875 C 17.546875 -34.523438 17.03125 -34.46875 16.40625 -34.25 C 14.800781 -33.695312 13.476562 -32.582031 12.4375 -30.90625 C 12.164062 -30.488281 12.125 -29.957031 12.3125 -29.3125 L 12.578125 -28.515625 L 12.828125 -27.703125 C 14.140625 -21.984375 14.066406 -15.867188 12.609375 -9.359375 C 12.441406 -8.628906 12.363281 -8.03125 12.375 -7.5625 C 12.5 -5.664062 11.445312 -3.566406 9.21875 -1.265625 C 8.414062 -0.441406 7.710938 0.144531 7.109375 0.5 C 6.410156 0.894531 5.753906 0.910156 5.140625 0.546875 L 3.640625 -0.328125 L 2.09375 -1.171875 C 1.3125 -1.566406 0.832031 -2.207031 0.65625 -3.09375 C 0.582031 -3.375 0.539062 -3.765625 0.53125 -4.265625 L 0.46875 -5.421875 C 0.132812 -9.023438 0.117188 -13.691406 0.421875 -19.421875 L 0.828125 -26.390625 C 0.972656 -29.097656 1.046875 -31.425781 1.046875 -33.375 C 1.046875 -35.039062 1.351562 -36.066406 1.96875 -36.453125 C 2.5 -36.785156 3.796875 -36.890625 5.859375 -36.765625 C 7.078125 -36.703125 8.070312 -36.335938 8.84375 -35.671875 C 9.132812 -35.398438 9.429688 -35.066406 9.734375 -34.671875 L 10.515625 -33.53125 C 10.929688 -32.875 11.3125 -32.546875 11.65625 -32.546875 C 11.957031 -32.546875 12.359375 -32.832031 12.859375 -33.40625 C 14.066406 -34.800781 15.894531 -35.488281 18.34375 -35.46875 C 20.425781 -35.46875 21.953125 -35.019531 22.921875 -34.125 C 23.710938 -33.375 24.367188 -32.023438 24.890625 -30.078125 C 25.972656 -25.867188 26.640625 -19.78125 26.890625 -11.8125 Z M 26.890625 -11.8125 "/></g></g></g><g fill="#66fcf1" fill-opacity="1"><g transform="translate(274.920924, 200.682775)"><g><path d="M 0.171875 -17.15625 C 0.0546875 -18.53125 0.125 -20.242188 0.375 -22.296875 L 0.75 -24.96875 L 1.125 -27.65625 C 1.132812 -27.8125 1.117188 -27.988281 1.078125 -28.1875 L 0.953125 -28.703125 C 0.847656 -29.117188 0.910156 -29.476562 1.140625 -29.78125 C 1.515625 -30.226562 1.972656 -30.519531 2.515625 -30.65625 C 3.003906 -30.789062 3.488281 -30.78125 3.96875 -30.625 C 5.132812 -30.28125 5.828125 -29.367188 6.046875 -27.890625 L 6.609375 -24.421875 L 7.21875 -20.96875 C 7.675781 -18.21875 7.914062 -15.890625 7.9375 -13.984375 C 7.957031 -11.785156 8.265625 -9.222656 8.859375 -6.296875 C 9.222656 -4.609375 10.082031 -3.5 11.4375 -2.96875 C 12.53125 -2.519531 13.566406 -2.703125 14.546875 -3.515625 C 15.515625 -4.335938 16 -5.421875 16 -6.765625 C 15.988281 -8.515625 16.03125 -10.507812 16.125 -12.75 L 16.453125 -18.75 L 16.796875 -24.359375 L 17.171875 -30 C 17.191406 -30.457031 17.367188 -30.742188 17.703125 -30.859375 C 18.703125 -31.191406 19.765625 -31.097656 20.890625 -30.578125 C 22.140625 -30.015625 22.863281 -29.117188 23.0625 -27.890625 L 23.171875 -26.78125 L 23.296875 -25.65625 C 23.421875 -24.789062 23.742188 -24.109375 24.265625 -23.609375 C 24.347656 -23.546875 24.390625 -23.40625 24.390625 -23.1875 L 24.390625 -22.6875 C 24.328125 -20.539062 24.457031 -17.820312 24.78125 -14.53125 L 25.21875 -10.453125 L 25.5625 -6.390625 L 25.734375 -3.5625 L 25.84375 -0.75 C 25.84375 1.363281 25.648438 3.226562 25.265625 4.84375 C 25.023438 5.84375 24.265625 6.898438 22.984375 8.015625 C 22.335938 8.578125 21.722656 8.832031 21.140625 8.78125 C 20.910156 8.75 20.65625 8.675781 20.375 8.5625 L 19.953125 8.390625 L 19.515625 8.15625 L 19.078125 7.90625 L 18.640625 7.640625 C 16.742188 6.421875 15.804688 4.097656 15.828125 0.671875 C 15.828125 -0.222656 15.753906 -0.722656 15.609375 -0.828125 C 15.453125 -0.941406 14.984375 -0.84375 14.203125 -0.53125 C 12.328125 0.21875 10.472656 -0.0078125 8.640625 -1.21875 C 8.222656 -1.5 7.710938 -1.785156 7.109375 -2.078125 L 5.515625 -2.828125 C 3.453125 -3.804688 2.046875 -5.382812 1.296875 -7.5625 C 0.535156 -9.78125 0.160156 -12.976562 0.171875 -17.15625 Z M 0.171875 -17.15625 "/></g></g></g><g fill="#66fcf1" fill-opacity="1"><g transform="translate(305.74817, 200.682775)"><g><path d="M 19.09375 -2.921875 C 18.394531 -4.222656 17.625 -5.738281 16.78125 -7.46875 L 14.53125 -12.03125 L 13.828125 -13.5 L 13.15625 -14.984375 C 12.601562 -16.109375 12.0625 -17.046875 11.53125 -17.796875 C 11.21875 -18.210938 11.234375 -18.679688 11.578125 -19.203125 C 12.296875 -20.242188 13.335938 -21.445312 14.703125 -22.8125 L 16.40625 -24.484375 C 17.050781 -25.140625 17.597656 -25.707031 18.046875 -26.1875 C 18.460938 -26.65625 18.570312 -27.085938 18.375 -27.484375 C 17.9375 -27.347656 17.46875 -27.085938 16.96875 -26.703125 L 16.34375 -26.21875 L 15.75 -25.71875 C 13.289062 -23.832031 11.101562 -21.84375 9.1875 -19.75 L 8.984375 -19.515625 L 8.765625 -19.328125 C 8.578125 -19.160156 8.441406 -19.09375 8.359375 -19.125 C 8.210938 -19.175781 8.140625 -19.316406 8.140625 -19.546875 L 8.140625 -20.125 L 8.0625 -22.046875 L 7.96875 -23.984375 C 7.71875 -27.703125 7.34375 -30.566406 6.84375 -32.578125 L 6.765625 -32.953125 L 6.640625 -33.296875 C 6.503906 -33.546875 6.328125 -33.707031 6.109375 -33.78125 L 5.046875 -34.125 L 3.96875 -34.5 C 3.125 -34.78125 2.382812 -34.890625 1.75 -34.828125 L 1.203125 -34.78125 C 1.003906 -34.738281 0.835938 -34.695312 0.703125 -34.65625 C 0.316406 -34.488281 0.109375 -34.117188 0.078125 -33.546875 C 0.0234375 -32.984375 0.0507812 -32.296875 0.15625 -31.484375 L 0.25 -30.453125 L 0.34375 -29.4375 C 0.5625 -26.382812 0.65625 -22.953125 0.625 -19.140625 L 0.53125 -13.984375 L 0.375 -8.84375 L 0.203125 -3.875 L 0.046875 1.125 C 0.046875 1.84375 0.140625 2.359375 0.328125 2.671875 C 0.585938 3.148438 1.09375 3.363281 1.84375 3.3125 C 1.957031 3.300781 2.097656 3.335938 2.265625 3.421875 L 2.703125 3.640625 C 5.078125 4.742188 6.539062 4.097656 7.09375 1.703125 C 7.738281 -1.179688 8.085938 -3.796875 8.140625 -6.140625 L 8.234375 -8.609375 L 8.359375 -11.078125 C 8.460938 -13.078125 8.472656 -14.734375 8.390625 -16.046875 L 8.390625 -16.453125 C 8.398438 -16.597656 8.472656 -16.679688 8.609375 -16.703125 C 8.722656 -16.710938 8.816406 -16.65625 8.890625 -16.53125 L 8.9375 -16.328125 L 9.015625 -16.15625 L 10.265625 -13 L 11.53125 -9.890625 C 12.5625 -7.503906 13.601562 -5.503906 14.65625 -3.890625 L 15.296875 -2.765625 L 15.921875 -1.625 C 16.441406 -0.757812 17.023438 -0.125 17.671875 0.28125 L 18.09375 0.5 L 18.515625 0.671875 C 18.867188 0.773438 19.117188 0.707031 19.265625 0.46875 C 19.847656 -0.457031 19.789062 -1.585938 19.09375 -2.921875 Z M 19.09375 -2.921875 "/></g></g></g><g fill="#66fcf1" fill-opacity="1"><g transform="translate(330.884236, 200.682775)"><g><path d="M 18.828125 -13.53125 C 18.617188 -10.71875 17.203125 -8.785156 14.578125 -7.734375 C 13.992188 -7.503906 13.492188 -7.515625 13.078125 -7.765625 C 12.765625 -7.960938 12.5 -8.3125 12.28125 -8.8125 C 11.144531 -11.40625 10.796875 -13.914062 11.234375 -16.34375 C 11.316406 -16.882812 11.375 -17.5625 11.40625 -18.375 L 11.4375 -19.390625 L 11.484375 -20.390625 C 11.535156 -21.273438 11.734375 -22.382812 12.078125 -23.71875 L 12.53125 -25.3125 L 12.90625 -26.9375 C 13.15625 -28.28125 13.90625 -29.34375 15.15625 -30.125 C 16.050781 -30.695312 17.253906 -31.140625 18.765625 -31.453125 C 19.671875 -31.640625 20.148438 -31.125 20.203125 -29.90625 C 20.117188 -27.875 19.914062 -25.175781 19.59375 -21.8125 L 19.203125 -17.703125 Z M 30.109375 -18.390625 C 30.140625 -20.046875 29.890625 -21.90625 29.359375 -23.96875 L 28.5625 -26.640625 L 27.703125 -29.28125 C 27.359375 -30.363281 27.023438 -31.1875 26.703125 -31.75 C 26.191406 -32.644531 25.53125 -33.335938 24.71875 -33.828125 C 23.632812 -34.460938 22.675781 -34.710938 21.84375 -34.578125 C 20.976562 -34.441406 20.476562 -33.910156 20.34375 -32.984375 C 20.257812 -32.296875 19.882812 -32.09375 19.21875 -32.375 C 17.289062 -33.175781 14.976562 -32.976562 12.28125 -31.78125 C 7.882812 -29.832031 4.863281 -26.113281 3.21875 -20.625 C 1.070312 -13.53125 1.960938 -8.019531 5.890625 -4.09375 C 7.953125 -2.03125 9.660156 -0.820312 11.015625 -0.46875 C 13.023438 0.0390625 15.3125 -0.75 17.875 -2.84375 L 18.078125 -3 C 18.140625 -3.050781 18.1875 -3.066406 18.21875 -3.046875 C 18.375 -2.992188 18.457031 -2.894531 18.46875 -2.75 L 18.46875 -2.546875 L 18.453125 -2.375 L 18.09375 4.046875 C 18.050781 4.773438 18.285156 5.390625 18.796875 5.890625 C 19.316406 6.390625 19.929688 6.613281 20.640625 6.5625 L 21.375 6.46875 L 22.125 6.359375 C 22.695312 6.296875 23.191406 6.304688 23.609375 6.390625 C 24.679688 6.609375 25.78125 6.375 26.90625 5.6875 C 28.019531 4.988281 28.71875 4.125 29 3.09375 L 29.40625 1.515625 C 29.519531 0.941406 29.59375 0.421875 29.625 -0.046875 C 30.03125 -6.328125 30.191406 -12.441406 30.109375 -18.390625 Z M 30.109375 -18.390625 "/></g></g></g></svg>